# xmcd
#
# Track frame offsets:
#   150
#   16305
#   42892
#   60822
#   77005
#   94872
#   110335
#   124915
#   140750
#   155380
#
# Disc length: 2299 seconds
#
# Revision: 1
# Processed by: cddbd v1.5.1PL0 Copyright (c) Steve Scherf et al.
# Submitted via: Media_Universe 3.0
#
DISCID=7708f90a
DTITLE=Nitty Gritty Dirt Band - Nitty Gritty Dirt Band - Certified Hits
DYEAR=1900
DGENRE=Country
TTITLE0=Mr.Bojangles
TTITLE1=Ripplin' Waters
TTITLE2=Fire in the Sky
TTITLE3=An American dream
TTITLE4=Make a Little Magic
TTITLE5=Shot Full of Love
TTITLE6=Dance Little Jean
TTITLE7=Fishin' In The Dark
TTITLE8=High Horse
TTITLE9=One Good Love
EXTD=
EXTT0=
EXTT1=
EXTT2=
EXTT3=
EXTT4=
EXTT5=
EXTT6=
EXTT7=
EXTT8=
EXTT9=
PLAYORDER=
